<svg version="1.1" viewBox="0.0 0.0 960.0 720.0" fill="none" stroke="none" stroke-linecap="square" stroke-miterlimit="10" xmlns:xlink="http://www.w3.org/1999/xlink" xmlns="http://www.w3.org/2000/svg"><clipPath id="p.0"><path d="m0 0l960.0 0l0 720.0l-960.0 0l0 -720.0z" clip-rule="nonzero"/></clipPath><g clip-path="url(#p.0)"><path fill="#000000" fill-opacity="0.0" d="m0 0l960.0 0l0 720.0l-960.0 0z" fill-rule="evenodd"/><path fill="#434343" d="m113.80315 199.19685l773.57477 0l0 381.38586l-773.57477 0z" fill-rule="evenodd"/><path fill="#00ffff" d="m324.5099 494.9168l-61.109375 0l-45.937515 -71.3125l-14.296875 17.359375l0 53.953125l-52.484375 0l0 -226.90625l52.484375 0l0 135.46875l56.593765 -72.328125l60.515625 0l-58.921875 70.578125l63.15625 93.1875zm131.24301 -1.453125q-8.46875 2.1875 -17.953125 3.421875q-9.46875 1.234375 -23.171875 1.234375q-30.625 0 -45.578125 -12.390625q-14.9375 -12.390625 -14.9375 -42.4375l0 -76.5625l-21.59375 0l0 -35.578125l21.59375 0l0 -46.8125l52.484375 0l0 46.8125l49.15625 0l0 35.578125l-49.15625 0l0 58.046875q0 8.59375 0.140625 15.015625q0.15625 6.421875 2.34375 11.515625q2.046875 5.109375 7.21875 8.109375q5.171875 2.984375 15.09375 2.984375q4.078125 0 10.71875 -1.75q6.640625 -1.75 9.265625 -3.21875l4.375 0l0 36.03125zm406.42044 -82.6875q0 20.265625 -6.203125 36.890625q-6.1875 16.625 -16.25 27.421875q-10.5 11.375 -23.78125 17.203125q-13.265625 5.828125 -28.4375 5.828125q-14.0 0 -23.765625 -2.984375q-9.765625 -2.984375 -19.984375 -8.390625l0 68.25l-52.484375 0l0 -223.84375l52.484375 0l0 17.0625q12.109375 -9.625 24.71875 -15.59375q12.625 -5.984375 29.09375 -5.984375q30.625 0 47.609375 22.453125q17.0 22.453125 17.0 61.6875zm-54.109375 1.015625q0 -23.90625 -8.171875 -34.703125q-8.15625 -10.796875 -25.796875 -10.796875q-7.4375 0 -15.3125 2.265625q-7.875 2.265625 -15.03125 6.484375l0 82.390625q5.25 2.046875 11.234375 2.640625q5.984375 0.578125 11.8125 0.578125q20.859375 0 31.0625 -12.171875q10.203125 -12.1875 10.203125 -36.6875z" fill-rule="nonzero"/><path fill="#00ff00" d="m520.79315 504.3241l0 0c-33.541046 -17.139618 -55.02182 -51.25116 -55.985687 -88.905365c-0.96383667 -37.654175 18.743622 -72.82004 51.3638 -91.65323l25.698547 44.511414c-16.310059 9.416595 -26.163818 26.999512 -25.681885 45.82663c0.4819336 18.827087 11.22229 35.882843 27.992798 44.452667z" fill-rule="evenodd"/><path stroke="#00ff00" stroke-width="1.2729658792650917" stroke-linejoin="round" stroke-linecap="butt" d="m520.79315 504.3241l0 0c-33.541046 -17.139618 -55.02182 -51.25116 -55.985687 -88.905365c-0.96383667 -37.654175 18.743622 -72.82004 51.3638 -91.65323l25.698547 44.511414c-16.310059 9.416595 -26.163818 26.999512 -25.681885 45.82663c0.4819336 18.827087 11.22229 35.882843 27.992798 44.452667z" fill-rule="evenodd"/><path fill="#ff0000" d="m625.2365 504.17493l0 0c31.094482 -18.544983 50.14044 -52.08017 50.14044 -88.28494l-51.397095 0c0 18.102386 -9.522949 34.869995 -25.07019 44.142487z" fill-rule="evenodd"/><path stroke="#ff0000" stroke-width="1.2729658792650917" stroke-linejoin="round" stroke-linecap="butt" d="m625.2365 504.17493l0 0c31.094482 -18.544983 50.14044 -52.08017 50.14044 -88.28494l-51.397095 0c0 18.102386 -9.522949 34.869995 -25.07019 44.142487z" fill-rule="evenodd"/><path fill="#ffff00" d="m520.84784 321.86755l0 0c31.794983 -18.518005 71.062805 -18.62973 102.96265 -0.29296875c31.89978 18.336761 51.56604 52.325226 51.56604 89.11972l-51.397095 0c0 -18.397247 -9.83313 -35.39148 -25.78302 -44.559875c-15.949951 -9.1683655 -35.583862 -9.112488 -51.481323 0.1465149z" fill-rule="evenodd"/><path stroke="#ffff00" stroke-width="1.2729658792650917" stroke-linejoin="round" stroke-linecap="butt" d="m520.84784 321.86755l0 0c31.794983 -18.518005 71.062805 -18.62973 102.96265 -0.29296875c31.89978 18.336761 51.56604 52.325226 51.56604 89.11972l-51.397095 0c0 -18.397247 -9.83313 -35.39148 -25.78302 -44.559875c-15.949951 -9.1683655 -35.583862 -9.112488 -51.481323 0.1465149z" fill-rule="evenodd"/></g></svg>